<mxfile host="app.diagrams.net" modified="2024-02-12T16:46:51.929Z" agent="Mozilla/5.0 (Windows NT 10.0; Win64; x64) AppleWebKit/537.36 (KHTML, like Gecko) Chrome/121.0.0.0 Safari/537.36" version="23.1.2" etag="iyUzMKkNWSoiczhMBlj4" type="github">
  <diagram name="PÃ¡gina-1" id="T9mQigSZe4aqVts_efTm">
    <mxGraphModel>
      <root>
        <mxCell id="0" />
        <mxCell id="1" parent="0" />
      </root>
    </mxGraphModel>
  </diagram>
</mxfile>
